HIERARCHY
ROOT hips_dup
{
	OFFSET 13.555223 105.612480 -256.467346
	CHANNELS 6 Xposition Yposition Zposition Zrotation Yrotation Xrotation
	JOINT l_hip_dup
	{
		OFFSET 0.100000 0.000000 0.000000
		CHANNELS 3 Zrotation Yrotation Xrotation
		JOINT l_thigh_dup
		{
			OFFSET 7.071068 -7.071068 0.000000
			CHANNELS 3 Zrotation Yrotation Xrotation
			JOINT l_knee_dup
			{
				OFFSET -0.000004 -50.000008 -0.000000
				CHANNELS 3 Zrotation Yrotation Xrotation
				JOINT l_foot_dup
				{
					OFFSET 0.000000 -46.844975 0.000000
					CHANNELS 3 Zrotation Yrotation Xrotation
					JOINT l_toes_dup
					{
						OFFSET -0.000001 -3.481765 12.994140
						CHANNELS 3 Zrotation Yrotation Xrotation
						End l_toes_End_dup
						{
							OFFSET 0.000000 0.000003 10.000000
						}
					}
				}
			}
		}
	}
	JOINT r_hip_dup
	{
		OFFSET 0.100000 0.000000 0.000000
		CHANNELS 3 Zrotation Yrotation Xrotation
		JOINT r_thigh_dup
		{
			OFFSET -7.071067 -7.071068 0.000000
			CHANNELS 3 Zrotation Yrotation Xrotation
			JOINT r_knee_dup
			{
				OFFSET 0.000000 -49.999996 0.000000
				CHANNELS 3 Zrotation Yrotation Xrotation
				JOINT r_foot_dup
				{
					OFFSET -0.000002 -46.844952 -0.000000
					CHANNELS 3 Zrotation Yrotation Xrotation
					JOINT r_toes_dup
					{
						OFFSET -0.000001 -3.481757 12.994109
						CHANNELS 3 Zrotation Yrotation Xrotation
						End r_toes_End_dup
						{
							OFFSET 0.000000 -0.000003 10.000000
						}
					}
				}
			}
		}
	}
	JOINT spine1_dup
	{
		OFFSET -0.000000 0.100000 0.000000
		CHANNELS 3 Zrotation Yrotation Xrotation
		JOINT spine2_dup
		{
			OFFSET 0.000000 10.421848 -0.000000
			CHANNELS 3 Zrotation Yrotation Xrotation
			JOINT spine3_dup
			{
				OFFSET 0.000000 10.421845 -0.000000
				CHANNELS 3 Zrotation Yrotation Xrotation
				JOINT spine4_dup
				{
					OFFSET -0.000000 10.421832 0.000000
					CHANNELS 3 Zrotation Yrotation Xrotation
					JOINT neck1_dup
					{
						OFFSET 0.000000 10.421812 0.000000
						CHANNELS 3 Zrotation Yrotation Xrotation
						JOINT neck2_dup
						{
							OFFSET 0.000000 5.749965 -0.000000
							CHANNELS 3 Zrotation Yrotation Xrotation
							JOINT head_dup
							{
								OFFSET -0.000000 5.749923 -0.000000
								CHANNELS 3 Zrotation Yrotation Xrotation
								End head_End_dup
								{
									OFFSET 0.000000 11.499688 0.000000
								}
							}
						}
					}
					JOINT l_clavicle_dup
					{
						OFFSET -0.000000 10.421843 -0.000000
						CHANNELS 3 Zrotation Yrotation Xrotation
						JOINT l_shoulder_dup
						{
							OFFSET 18.284861 0.000012 -0.000000
							CHANNELS 3 Zrotation Yrotation Xrotation
							JOINT l_elbow_dup
							{
								OFFSET 30.849018 0.000020 0.000000
								CHANNELS 3 Zrotation Yrotation Xrotation
								JOINT l_hand_dup
								{
									OFFSET 28.131332 0.000019 0.000000
									CHANNELS 3 Zrotation Yrotation Xrotation
									End l_hand_End_dup
									{
										OFFSET 14.999249 0.000010 0.000000
									}
								}
							}
						}
					}
					JOINT r_clavicle_dup
					{
						OFFSET -0.000000 10.421843 -0.000000
						CHANNELS 3 Zrotation Yrotation Xrotation
						JOINT r_shoulder_dup
						{
							OFFSET -18.284861 0.000004 0.000000
							CHANNELS 3 Zrotation Yrotation Xrotation
							JOINT r_elbow_dup
							{
								OFFSET -30.849058 0.000005 -0.000000
								CHANNELS 3 Zrotation Yrotation Xrotation
								JOINT r_hand_dup
								{
									OFFSET -28.131351 0.000005 0.000000
									CHANNELS 3 Zrotation Yrotation Xrotation
									End r_hand_End_dup
									{
										OFFSET -14.999262 0.000003 0.000000
									}
								}
							}
						}
					}
				}
			}
		}
	}
}
MOTION
Frames: 7
Frame Time: 0.041667
49.816	104.699	408.861	3.408	-176.088	-7.147	0.000	0.000	0.000	0.000	0.000	0.000	0.000	0.000	0.000	-0.000	-0.000	0.000	-0.000	0.000	-0.000	0.000	0.000	0.000	0.000	0.000	0.000	0.000	0.000	0.000	-0.000	0.000	-0.000	-0.000	-0.000	0.000	0.000	0.000	0.000	0.000	0.000	0.000	0.000	0.000	0.000	0.000	0.000	0.000	0.000	0.000	0.000	0.000	0.000	0.000	0.000	0.000	0.000	0.000	0.000	0.000	0.000	0.000	-0.000	0.000	0.000	-0.000	0.000	0.000	-0.000	-0.000	0.000	0.000	0.000	-0.000	-0.000	0.000	-0.000	-0.000	0.000	-0.000	-0.000
49.882	105.437	406.453	3.457	-176.427	-7.144	0.000	0.000	0.000	11.231	5.256	-14.268	-0.000	0.000	76.995	-2.852	-4.894	1.061	0.000	0.000	-6.057	0.000	0.000	0.000	4.176	-2.580	-17.191	0.000	-0.000	40.053	1.625	-5.889	-13.091	0.000	-0.000	2.187	1.330	-1.388	5.943	0.761	-1.250	3.478	1.066	-1.066	3.657	1.846	-1.014	6.408	3.061	0.283	-1.337	1.337	0.279	-0.598	-0.277	0.306	0.114	-8.644	-5.766	-1.245	-69.810	-11.797	-8.288	-0.001	-48.631	-0.000	1.538	-22.262	-29.430	6.097	2.653	-1.554	73.471	-3.382	-24.470	0.000	19.699	-0.001	-0.393	-8.043	31.239
49.818	107.760	399.389	2.488	-178.492	-6.613	0.000	0.000	0.000	8.284	7.116	-19.447	-0.000	0.000	70.212	-3.868	-4.032	-3.930	0.000	0.000	-4.572	0.000	0.000	0.000	3.479	-1.399	-12.834	0.000	-0.000	37.097	1.705	-5.397	-11.678	0.000	-0.000	0.265	1.300	-0.577	5.830	0.723	-0.538	3.423	0.637	-0.546	3.713	1.052	-0.544	6.569	2.973	0.248	-1.288	1.414	0.242	-0.517	-0.049	0.257	0.208	-8.296	-4.549	-1.396	-70.769	-10.460	-7.624	-0.001	-47.003	-0.001	0.592	-21.320	-28.473	5.491	3.204	-1.756	73.640	-3.004	-22.413	0.001	23.180	-0.003	0.659	-6.270	29.827
49.574	109.000	394.592	2.122	-180.476	-5.928	0.000	0.000	0.000	5.818	8.731	-22.734	-0.000	0.000	58.100	-5.165	-2.303	-6.051	0.000	0.000	-6.853	0.000	0.000	0.000	3.055	0.586	-8.936	0.000	-0.000	34.117	2.344	-5.102	-9.978	0.000	-0.000	-1.579	1.533	0.169	5.152	0.799	0.168	3.110	0.295	0.086	3.873	0.404	0.056	6.912	2.770	0.320	-1.417	1.249	0.312	-0.624	-0.157	0.326	0.129	-8.038	-3.687	-1.418	-71.650	-7.911	-7.200	-0.002	-47.240	-0.002	0.955	-19.993	-28.138	4.141	2.671	-2.168	73.683	-2.430	-17.819	0.001	28.065	-0.004	2.132	-5.199	25.079
48.938	110.384	387.087	1.750	-183.999	-4.665	0.000	0.000	0.000	4.109	9.431	-23.644	-0.000	0.000	41.672	-5.625	0.547	-6.713	0.000	0.000	-8.424	0.000	0.000	0.000	2.517	2.835	-5.366	0.000	-0.000	31.474	2.698	-4.577	-8.271	0.000	-0.000	-4.333	1.829	0.845	4.232	0.973	0.819	2.616	0.021	0.789	3.855	-0.353	0.715	7.000	2.628	0.419	-1.439	1.152	0.464	-0.406	-0.211	0.521	0.628	-8.798	-3.126	-0.126	-71.188	-5.176	-7.383	-0.003	-48.636	-0.002	0.762	-20.122	-26.067	3.097	1.690	-2.442	72.836	-1.918	-12.640	0.002	33.162	-0.006	3.867	-3.990	20.979
48.213	110.251	379.478	1.529	-187.719	-3.624	0.000	0.000	0.000	3.751	8.041	-22.937	-0.000	0.000	24.726	-5.566	5.289	-9.644	0.000	0.000	-6.092	0.000	0.000	0.000	1.832	4.645	-2.529	0.000	-0.000	30.772	2.735	-3.685	-8.821	0.000	-0.000	-6.302	2.155	1.470	3.271	1.021	1.429	2.126	-0.255	1.429	3.628	-0.897	1.374	6.817	2.660	0.647	-0.925	1.068	0.654	0.095	-0.447	0.672	1.124	-8.382	-2.913	0.973	-71.445	-1.509	-7.158	-0.003	-50.577	-0.003	1.280	-19.445	-30.649	2.486	1.393	-2.122	71.066	-2.308	-8.251	0.003	40.103	-0.006	4.863	-2.545	16.955
47.741	109.616	374.319	1.447	-190.086	-3.246	0.000	0.000	0.000	4.246	6.914	-22.107	-0.000	0.000	13.686	-4.960	9.761	-11.689	0.000	0.000	-9.376	0.000	0.000	0.000	1.055	6.361	0.214	0.000	-0.000	31.221	2.695	-2.822	-11.537	0.000	-0.000	-6.871	2.282	1.957	2.307	1.041	1.984	1.690	-0.430	2.012	3.569	-1.286	1.958	6.949	2.534	0.876	-0.507	1.024	0.875	0.400	-0.431	0.877	1.375	-8.544	-3.165	-0.270	-71.411	4.277	-7.700	-0.004	-53.028	-0.003	-0.724	-18.097	-32.211	1.680	1.101	-2.818	69.523	-2.612	-4.856	0.004	45.743	-0.006	4.416	-0.265	13.902
